<svg
    width="22"
    height="18"
    viewBox="0 0 22 18"
    fill="none"
    xmlns="http://www.w3.org/2000/svg"
>
    <path
        d="M13.5604 17.5603L21.0604 10.0603C21.1999 9.92109 21.3105 9.75579 21.3859 9.57381C21.4614 9.39184 21.5002 9.19677 21.5002 8.99977C21.5002 8.80277 21.4614 8.60771 21.3859 8.42573C21.3105 8.24376 21.1999 8.07846 21.0604 7.93927L13.5604 0.439274C13.2792 0.158011 12.8977 0 12.4999 0C12.303 0 12.108 0.0387931 11.926 0.114164C11.744 0.189534 11.5787 0.300007 11.4394 0.439274C11.3002 0.57854 11.1897 0.743874 11.1143 0.925835C11.039 1.1078 11.0002 1.30282 11.0002 1.49977C11.0002 1.89754 11.1582 2.27901 11.4394 2.56027L16.3789 7.49977L1.99994 7.49977C1.60212 7.49977 1.22059 7.65781 0.939281 7.93911C0.657978 8.22042 0.499943 8.60195 0.499943 8.99977C0.499943 9.3976 0.657978 9.77913 0.939281 10.0604C1.22059 10.3417 1.60212 10.4998 1.99994 10.4998L16.3789 10.4998L11.4394 15.4393C11.2997 15.5783 11.1887 15.7435 11.113 15.9255C11.0374 16.1075 10.9984 16.3027 10.9984 16.4998C10.9984 16.6969 11.0374 16.8921 11.113 17.0741C11.1887 17.2561 11.2997 17.4213 11.4394 17.5603C11.5786 17.6997 11.7439 17.8103 11.9259 17.8858C12.1079 17.9612 12.3029 18.0001 12.4999 18.0001C12.6969 18.0001 12.892 17.9612 13.074 17.8858C13.256 17.8103 13.4213 17.6997 13.5604 17.5603Z"
        fill="white"
    />
</svg>