<svg
    width="20"
    height="18"
    viewBox="0 0 20 18"
    fill="none"
    xmlns="http://www.w3.org/2000/svg"
>
    <path
        fill-rule="evenodd"
        clip-rule="evenodd"
        d="M12.4246 1.10883C12.6079 0.95613 12.8444 0.882487 13.082 0.904089C13.3197 0.925692 13.539 1.04077 13.6918 1.22403L19.6912 8.42403C19.8372 8.60808 19.9055 8.84195 19.8814 9.07567C19.8573 9.30938 19.7428 9.52442 19.5623 9.67483C19.3818 9.82525 19.1497 9.89911 18.9154 9.88065C18.6812 9.86219 18.4635 9.75286 18.3088 9.57603L12.3094 2.37603C12.1567 2.19268 12.083 1.9562 12.1047 1.71858C12.1263 1.48095 12.2413 1.26163 12.4246 1.10883Z"
        fill="white"
    />
    <path
        fill-rule="evenodd"
        clip-rule="evenodd"
        d="M12.4246 16.8913C12.2413 16.7385 12.1263 16.5192 12.1047 16.2816C12.083 16.0439 12.1567 15.8075 12.3094 15.6241L18.3088 8.42411C18.4635 8.24727 18.6812 8.13795 18.9154 8.11948C19.1497 8.10102 19.3818 8.17489 19.5623 8.3253C19.7428 8.47571 19.8573 8.69075 19.8814 8.92447C19.9055 9.15819 19.8372 9.39205 19.6912 9.57611L13.6918 16.7761C13.539 16.9594 13.3197 17.0744 13.082 17.096C12.8444 17.1176 12.6079 17.044 12.4246 16.8913Z"
        fill="white"
    />
    <path
        fill-rule="evenodd"
        clip-rule="evenodd"
        d="M19.9 9.0001C19.9 9.23879 19.8052 9.46771 19.6364 9.63649C19.4676 9.80528 19.2387 9.9001 19 9.9001H0.999976C0.761281 9.9001 0.532362 9.80528 0.36358 9.63649C0.194797 9.46771 0.0999756 9.23879 0.0999756 9.0001C0.0999756 8.7614 0.194797 8.53248 0.36358 8.3637C0.532362 8.19492 0.761281 8.1001 0.999976 8.1001H19C19.2387 8.1001 19.4676 8.19492 19.6364 8.3637C19.8052 8.53248 19.9 8.7614 19.9 9.0001Z"
        fill="white"
    />
</svg>