<svg
    width="175"
    height="29"
    viewBox="0 0 175 29"
    fill="none"
    xmlns="http://www.w3.org/2000/svg"
>
    <path
        d="M154.87 28.349L161.8 18.5844L154.87 8.8197H159.32L164.556 16.3007L169.754 8.8197H174.242L167.312 18.5844L174.242 28.349H169.754L164.556 20.868L159.32 28.349H154.87Z"
        fill="white"
    />
    <path
        d="M144.055 28.8216C142.139 28.8216 140.433 28.4016 138.936 27.5616C137.467 26.6954 136.312 25.5011 135.472 23.9786C134.632 22.4562 134.212 20.6844 134.212 18.6632C134.212 16.6158 134.619 14.8177 135.432 13.269C136.272 11.7203 137.427 10.5128 138.897 9.64662C140.393 8.7804 142.126 8.34729 144.094 8.34729C146.011 8.34729 147.677 8.7804 149.095 9.64662C150.512 10.4866 151.615 11.6153 152.402 13.0328C153.19 14.4502 153.583 16.012 153.583 17.7182C153.583 17.9807 153.57 18.2695 153.544 18.5844C153.544 18.8732 153.531 19.2013 153.505 19.5688H138.307C138.438 21.4587 139.055 22.9024 140.157 23.8999C141.286 24.8711 142.585 25.3567 144.055 25.3567C145.236 25.3567 146.221 25.0942 147.008 24.5692C147.822 24.018 148.426 23.283 148.819 22.3643H152.993C152.468 24.2017 151.418 25.7373 149.843 26.971C148.294 28.2047 146.365 28.8216 144.055 28.8216ZM144.055 11.7728C142.664 11.7728 141.43 12.1928 140.354 13.0328C139.278 13.8465 138.622 15.0802 138.385 16.7339H149.41C149.331 15.2114 148.793 14.004 147.796 13.1115C146.798 12.219 145.551 11.7728 144.055 11.7728Z"
        fill="white"
    />
    <path
        d="M112.796 28.3492V12.3241H110V8.81982H112.796V5.98492C112.796 3.85874 113.321 2.33629 114.371 1.41757C115.447 0.472606 116.956 0.00012207 118.899 0.00012207H120.946V3.54375H119.529C118.61 3.54375 117.954 3.74062 117.56 4.13436C117.166 4.50184 116.969 5.13182 116.969 6.02429V8.81982H121.458V12.3241H116.969V28.3492H112.796ZM125.435 28.3492V0.00012207H129.608V28.3492H125.435Z"
        fill="white"
    />
    <path
        d="M97.3758 28.8216C95.5121 28.8216 93.8321 28.4016 92.3359 27.5616C90.866 26.6954 89.6979 25.5011 88.8317 23.9786C87.9655 22.4299 87.5323 20.6319 87.5323 18.5844C87.5323 16.537 87.9655 14.7521 88.8317 13.2296C89.7241 11.6809 90.9185 10.4866 92.4147 9.64662C93.9109 8.7804 95.5777 8.34729 97.4151 8.34729C99.2788 8.34729 100.946 8.7804 102.416 9.64662C103.912 10.4866 105.093 11.6809 105.959 13.2296C106.852 14.7521 107.298 16.537 107.298 18.5844C107.298 20.6319 106.852 22.4299 105.959 23.9786C105.093 25.5011 103.912 26.6954 102.416 27.5616C100.919 28.4016 99.2394 28.8216 97.3758 28.8216ZM97.3758 25.2386C98.3732 25.2386 99.2919 24.9892 100.132 24.4905C100.998 23.9918 101.694 23.2568 102.219 22.2856C102.744 21.2881 103.006 20.0544 103.006 18.5844C103.006 17.1145 102.744 15.8939 102.219 14.9227C101.72 13.9252 101.038 13.1771 100.171 12.6784C99.3313 12.1797 98.4126 11.9303 97.4151 11.9303C96.4177 11.9303 95.4858 12.1797 94.6196 12.6784C93.7796 13.1771 93.0972 13.9252 92.5722 14.9227C92.0472 15.8939 91.7847 17.1145 91.7847 18.5844C91.7847 20.0544 92.0472 21.2881 92.5722 22.2856C93.0972 23.2568 93.7796 23.9918 94.6196 24.4905C95.4596 24.9892 96.3783 25.2386 97.3758 25.2386Z"
        fill="white"
    />
    <path
        d="M73.8218 28.3491V8.81977H77.5623L77.9166 12.5209C78.5991 11.2347 79.5441 10.2241 80.7515 9.48912C81.9852 8.7279 83.4683 8.34729 85.2008 8.34729V12.7178H84.0589C82.904 12.7178 81.8671 12.9146 80.9484 13.3084C80.0559 13.6759 79.3341 14.319 78.7829 15.2377C78.2579 16.1301 77.9954 17.377 77.9954 18.9782V28.3491H73.8218Z"
        fill="white"
    />
    <path
        d="M57.803 28.8215C55.4406 28.8215 53.5769 28.0865 52.2119 26.6166C50.8732 25.1466 50.2039 22.9548 50.2039 20.0412V8.8197H54.3775V19.6081C54.3775 23.388 55.9262 25.2779 59.0236 25.2779C60.5723 25.2779 61.8453 24.7267 62.8428 23.6242C63.8403 22.5217 64.339 20.9468 64.339 18.8994V8.8197H68.5126V28.349H64.8115L64.4965 24.9235C63.8928 26.131 63.0003 27.0891 61.8191 27.7978C60.6641 28.4803 59.3254 28.8215 57.803 28.8215Z"
        fill="white"
    />
    <path
        d="M36.7388 28.8216C34.8226 28.8216 33.1164 28.4016 31.6202 27.5616C30.1503 26.6954 28.9953 25.5011 28.1553 23.9786C27.3154 22.4562 26.8954 20.6844 26.8954 18.6632C26.8954 16.6158 27.3022 14.8177 28.116 13.269C28.9559 11.7203 30.1109 10.5128 31.5809 9.64662C33.077 8.7804 34.8095 8.34729 36.7782 8.34729C38.6944 8.34729 40.3612 8.7804 41.7786 9.64662C43.1961 10.4866 44.2985 11.6153 45.086 13.0328C45.8735 14.4502 46.2672 16.012 46.2672 17.7182C46.2672 17.9807 46.2541 18.2695 46.2278 18.5844C46.2278 18.8732 46.2147 19.2013 46.1885 19.5688H30.9902C31.1215 21.4587 31.7383 22.9024 32.8408 23.8999C33.9695 24.8711 35.2688 25.3567 36.7388 25.3567C37.92 25.3567 38.9043 25.0942 39.6918 24.5692C40.5055 24.018 41.1093 23.283 41.503 22.3643H45.6766C45.1516 24.2017 44.1017 25.7373 42.5267 26.971C40.978 28.2047 39.0487 28.8216 36.7388 28.8216ZM36.7388 11.7728C35.3476 11.7728 34.1139 12.1928 33.0377 13.0328C31.9615 13.8465 31.3052 15.0802 31.069 16.7339H42.0936C42.0149 15.2114 41.4768 14.004 40.4793 13.1115C39.4818 12.219 38.235 11.7728 36.7388 11.7728Z"
        fill="white"
    />
    <path
        d="M0 28.3489V0.787354H4.17361L17.9938 21.5373V0.787354H22.1674V28.3489H17.9938L4.17361 7.599V28.3489H0Z"
        fill="white"
    />
</svg>