<svg
    width="50"
    height="50"
    viewBox="0 0 50 50"
    fill="none"
    xmlns="http://www.w3.org/2000/svg"
>
    <path
        fill-rule="evenodd"
        clip-rule="evenodd"
        d="M0.833374 25.0002C0.833374 11.6602 11.6359 0.833496 24.9759 0.833496C38.34 0.833496 49.1667 11.6602 49.1667 25.0002C49.1667 38.3402 38.34 49.1668 24.9759 49.1668C11.6359 49.1668 0.833374 38.3402 0.833374 25.0002ZM34.5942 15.3335H41.7234C39.4034 11.346 35.7059 8.25266 31.2592 6.73016C32.7092 9.41266 33.8209 12.3127 34.5942 15.3335ZM25 5.7635C27.0059 8.6635 28.5767 11.8777 29.6159 15.3335H20.3842C21.4234 11.8777 22.9942 8.6635 25 5.7635ZM5.66671 25.0002C5.66671 26.6677 5.90837 28.2868 6.29504 29.8335H14.4634C14.27 28.2385 14.125 26.6435 14.125 25.0002C14.125 23.3568 14.27 21.7618 14.4634 20.1668H6.29504C5.90837 21.7135 5.66671 23.3327 5.66671 25.0002ZM8.27671 34.6668H15.4059C16.1792 37.6877 17.2909 40.5877 18.7409 43.2702C14.2942 41.7477 10.5967 38.6785 8.27671 34.6668ZM8.27671 15.3335H15.4059C16.1792 12.3127 17.2909 9.41266 18.7409 6.73016C14.2942 8.25266 10.5967 11.3218 8.27671 15.3335ZM25 44.2368C22.9942 41.3368 21.4234 38.1227 20.3842 34.6668H29.6159C28.5767 38.1227 27.0059 41.3368 25 44.2368ZM19.345 29.8335H30.655C30.8725 28.2385 31.0417 26.6435 31.0417 25.0002C31.0417 23.3568 30.8725 21.7377 30.655 20.1668H19.345C19.1275 21.7377 18.9584 23.3568 18.9584 25.0002C18.9584 26.6435 19.1275 28.2385 19.345 29.8335ZM31.2592 43.2702C32.7092 40.5877 33.8209 37.6877 34.5942 34.6668H41.7234C39.4034 38.6543 35.7059 41.7477 31.2592 43.2702ZM35.875 25.0002C35.875 26.6435 35.73 28.2385 35.5367 29.8335H43.705C44.0917 28.2868 44.3334 26.6677 44.3334 25.0002C44.3334 23.3327 44.0917 21.7135 43.705 20.1668H35.5367C35.73 21.7618 35.875 23.3568 35.875 25.0002Z"
        fill="url(#paint0_linear_71_2086)"
    />
    <defs>
        <linearGradient
            id="paint0_linear_71_2086"
            x1="25"
            y1="0.833496"
            x2="25"
            y2="49.1668"
            gradientUnits="userSpaceOnUse"
        >
            <stop stop-color="#2C27FF" />
            <stop offset="1" stop-color="#81A4FE" />
        </linearGradient>
    </defs>
</svg>