<svg
    width="37"
    height="49"
    viewBox="0 0 37 49"
    fill="none"
    xmlns="http://www.w3.org/2000/svg"
>
    <path
        fill-rule="evenodd"
        clip-rule="evenodd"
        d="M29.9583 16.4792H32.25C34.7708 16.4792 36.8333 18.5417 36.8333 21.0625V43.9792C36.8333 46.5 34.7708 48.5625 32.25 48.5625H4.74996C2.22913 48.5625 0.166626 46.5 0.166626 43.9792V21.0625C0.166626 18.5417 2.22913 16.4792 4.74996 16.4792H7.04163V11.8958C7.04163 5.57083 12.175 0.4375 18.5 0.4375C24.825 0.4375 29.9583 5.57083 29.9583 11.8958V16.4792ZM18.5 5.02083C14.6958 5.02083 11.625 8.09167 11.625 11.8958V16.4792H25.375V11.8958C25.375 8.09167 22.3041 5.02083 18.5 5.02083ZM4.74996 43.9792V21.0625H32.25V43.9792H4.74996ZM23.0833 32.5208C23.0833 35.0417 21.0208 37.1042 18.5 37.1042C15.9791 37.1042 13.9166 35.0417 13.9166 32.5208C13.9166 30 15.9791 27.9375 18.5 27.9375C21.0208 27.9375 23.0833 30 23.0833 32.5208Z"
        fill="url(#paint0_linear_71_2080)"
    />
    <defs>
        <linearGradient
            id="paint0_linear_71_2080"
            x1="18.5"
            y1="0.4375"
            x2="18.5"
            y2="48.5625"
            gradientUnits="userSpaceOnUse"
        >
            <stop stop-color="#2C27FF" />
            <stop offset="1" stop-color="#608BFE" />
        </linearGradient>
    </defs>
</svg>